<svg xmlns="http://www.w3.org/2000/svg" viewBox="0 0 512 512">
  <rect width="512" height="512" rx="96" fill="#F7F3EC"/>
  <path d="M310 130
           C 230 130, 170 190, 170 256
           C 170 322, 230 382, 310 382
           C 340 382, 365 374, 382 360
           L 355 326
           C 343 335, 328 340, 310 340
           C 260 340, 220 305, 215 270
           L 320 270
           L 332 240
           L 215 240
           C 215 230, 217 220, 220 210
           L 332 210
           L 344 180
           L 235 180
           C 248 155, 275 142, 310 142
           C 326 142, 340 146, 350 152
           L 372 120
           C 354 113, 333 130, 310 130
           Z"
        fill="#B85C38"/>
</svg>
